<svg width="66" height="73" viewBox="0 0 66 73" fill="none" xmlns="http://www.w3.org/2000/svg">
<path d="M40.9375 0.000976562C42.6292 0.00146585 44.321 0.00148142 46.0127 0.000976562C47.9751 0.000391101 49.938 -0.000336498 51.9004 0H57.6748C58.1266 0.000288565 58.5785 0.00133682 59.0303 0.000976562C59.4433 0.000651932 59.8565 0.000391724 60.2695 0.000976562C60.4908 0.00115802 60.7123 0.00037498 60.9336 0C61.1287 0.00042823 61.1293 0.000539968 61.3281 0.000976562C61.4411 0.000994337 61.5545 0.000958283 61.6709 0.000976562C61.9364 0.0146867 61.9364 0.0156133 62.1553 0.125C62.4016 0.149541 62.6494 0.168029 62.8965 0.183594C62.9689 0.188288 63.0416 0.19243 63.1162 0.197266C63.3484 0.212204 63.5812 0.226945 63.8135 0.241211C63.9707 0.251209 64.128 0.2614 64.2852 0.271484C64.6711 0.296149 65.0574 0.319984 65.4434 0.34375C65.2826 1.26483 65.0828 2.14573 64.7861 3.0332C64.7589 3.11517 64.7312 3.19778 64.7031 3.28223C64.5434 3.74723 64.3519 4.17661 64.1279 4.61523C64.0457 4.82844 63.9661 5.0428 63.8887 5.25781C63.5581 6.13436 63.1334 6.95984 62.7031 7.79102H62.4844C62.4479 7.8958 62.4474 7.89601 62.4102 8.00293C61.4254 10.2759 59.7788 12.5463 58.1006 14.3613C58.0503 14.4168 58 14.4731 57.9482 14.5303C55.7268 16.9631 52.7018 18.1628 49.4414 18.3379C47.527 18.4241 45.6123 18.4338 43.6963 18.4395C43.1075 18.4412 42.5184 18.4435 41.9297 18.4463C40.3617 18.4535 38.7936 18.4595 37.2256 18.4648C31.6274 18.4602 31.6271 18.4604 26.0322 18.623C25.9443 18.6272 25.8562 18.6314 25.7656 18.6357C24.8439 18.6817 23.9259 18.7569 23.0078 18.8506C22.921 18.8594 22.8336 18.8679 22.7441 18.877C21.1265 19.0507 20.0243 19.6914 18.8691 20.8232C18.7947 20.8936 18.7202 20.9646 18.6436 21.0371C17.0297 22.689 16.1318 25.2577 15.3623 27.3945C15.4827 27.3939 15.6035 27.3932 15.7275 27.3926C16.8083 27.3888 17.8866 27.4053 18.9668 27.4395C21.5672 27.5195 24.1681 27.5218 26.7695 27.5254C27.6083 27.5266 28.4473 27.5288 29.2861 27.5312C29.5758 27.5321 29.8656 27.5334 30.1553 27.5342C30.2637 27.5345 30.2645 27.5339 30.375 27.5342C31.1881 27.5364 32.0013 27.539 32.8145 27.541C32.8883 27.5412 32.9629 27.5408 33.0391 27.541C34.2453 27.5439 35.452 27.546 36.6582 27.5479C37.9064 27.5498 39.1551 27.5534 40.4033 27.5576C41.1002 27.5599 41.7972 27.5613 42.4941 27.5615C43.1469 27.5618 43.8004 27.5635 44.4531 27.5664C44.6914 27.5672 44.9297 27.5678 45.168 27.5674C48.2736 27.5633 48.2746 27.5631 49.5186 28.6328C50.1522 29.3688 50.2076 30.1281 50.1406 31.083C49.9753 32.1563 49.5122 33.1623 49.0527 34.1367C48.9665 34.3208 48.967 34.3216 48.8789 34.5098C48.0122 36.3387 47.048 38.0439 45.8271 39.6602C45.7478 39.7663 45.6687 39.8731 45.5869 39.9824C43.48 42.6723 40.6643 44.7303 37.2139 45.2041C35.7664 45.3639 34.308 45.3705 32.8535 45.3672C32.6612 45.3672 32.4687 45.3681 32.2764 45.3682C31.7608 45.3682 31.2451 45.367 30.7295 45.3662C30.1882 45.3655 29.6468 45.3654 29.1055 45.3652C28.0833 45.3649 27.0603 45.3644 26.0381 45.3633C24.8732 45.3621 23.7078 45.3609 22.543 45.3604C20.1495 45.3592 17.7558 45.3579 15.3623 45.3555C15.5606 45.9167 15.7606 46.4773 15.9629 47.0371C16.0311 47.2267 16.099 47.4165 16.166 47.6064C17.0355 50.067 18.1584 52.4598 20.6357 53.6445C22.1948 54.2358 23.9047 54.4609 25.5596 54.5684C25.6987 54.5774 25.8381 54.5864 25.9814 54.5957C27.979 54.716 29.9821 54.7014 31.9824 54.7051C32.5644 54.7064 33.1465 54.7085 33.7285 54.7109C34.8284 54.7155 35.9285 54.7195 37.0283 54.7227C38.9967 54.7283 40.9653 54.7353 42.9336 54.7432C43.6214 54.7459 44.3093 54.7473 44.9971 54.749C54.4784 54.7736 54.4785 54.7742 57.6621 57.6211C57.8032 57.7466 57.8035 57.7471 57.9473 57.875C60.7222 60.4924 63.2376 64.6972 64.5732 68.2373C64.6013 68.31 64.6293 68.3831 64.6582 68.458C64.9391 69.2019 65.2136 69.9594 65.1143 70.7637C64.6467 71.4207 63.9879 71.9666 63.252 72.2969H62.9229V72.5156C62.1352 72.7607 61.3922 72.7652 60.5713 72.7627C60.4217 72.763 60.2717 72.7641 60.1221 72.7646C59.7126 72.7658 59.303 72.7651 58.8936 72.7646C58.4511 72.7644 58.0079 72.7658 57.5654 72.7666C56.6987 72.768 55.8316 72.7678 54.9648 72.7676C54.2592 72.7674 53.5533 72.7681 52.8477 72.7686H46.1768C44.4285 72.768 42.6799 72.7694 40.9316 72.7715C39.1325 72.7736 37.3333 72.7748 35.5342 72.7744C34.5258 72.7742 33.5171 72.7748 32.5088 72.7764H28.6172C25.9644 72.7839 23.3679 72.5941 20.752 72.1318C20.6195 72.11 20.487 72.0879 20.3506 72.0654C20.2228 72.0433 20.0945 72.0218 19.9629 71.999C19.8522 71.9799 19.741 71.9601 19.627 71.9404C19.2702 71.8484 18.9753 71.7002 18.6494 71.5303C18.3769 71.4695 18.3768 71.4686 18.1016 71.4404C17.4395 71.3339 16.8726 71.0863 16.2637 70.8125C15.99 70.6897 15.7194 70.5772 15.4375 70.4756C11.5998 69.0455 8.04803 66.2635 5.6084 62.9873C5.56567 62.9305 5.52254 62.874 5.47852 62.8154C4.93405 62.0882 4.42902 61.3412 3.95801 60.5645C3.91616 60.4958 3.87417 60.4272 3.83105 60.3564C3.64048 60.0355 3.47709 59.7444 3.41699 59.373H3.19824C2.76296 58.547 2.3677 57.7409 2.09375 56.8447C2.01689 56.602 1.93039 56.362 1.83984 56.124C1.12225 54.2292 0.726871 52.2854 0.458008 50.2832C0.436837 50.145 0.415367 50.0067 0.393555 49.8643C0.31245 49.1952 0.324039 48.5195 0.321289 47.8467C0.31903 47.7102 0.316781 47.5732 0.314453 47.4326C0.307396 45.7272 0.746239 44.1321 1.82227 42.7871C1.99218 42.6177 1.99285 42.6172 2.21191 42.6172C2.24802 42.5089 2.28409 42.4006 2.32129 42.2891C3.81383 40.7942 5.72066 40.2862 7.76758 40.2783C8.06208 40.279 8.35688 40.2809 8.65137 40.2832C8.86574 40.2837 9.08055 40.284 9.29492 40.2842C9.75483 40.2848 10.2149 40.2866 10.6748 40.2891C11.4095 40.293 12.1442 40.2947 12.8789 40.2959C14.3141 40.2985 15.7494 40.3042 17.1846 40.3096C25.1328 40.3677 25.133 40.3669 33.0791 40.2285C33.2038 40.2247 33.3286 40.2208 33.457 40.2168C36.3177 40.124 38.8154 39.7276 40.8955 37.5791C41.8974 36.4481 42.6538 35.1298 43.4395 33.8457C43.599 33.5863 43.7603 33.3275 43.9219 33.0693C43.9709 32.9911 44.0199 32.9127 44.0703 32.832C44.1076 32.7725 44.1452 32.7127 44.1836 32.6514C44.0641 32.6516 44.0634 32.6512 43.9414 32.6514C39.2094 32.6587 34.4771 32.6646 29.7451 32.668C29.1765 32.6684 28.6077 32.6685 28.0391 32.6689C27.926 32.669 27.8127 32.6698 27.6963 32.6699C25.8654 32.6713 24.034 32.6737 22.2031 32.6768C20.323 32.6798 18.4426 32.681 16.5625 32.6816C15.4034 32.6821 14.2441 32.6838 13.085 32.6865C12.289 32.6883 11.4923 32.6889 10.6963 32.6885C10.238 32.6883 9.77959 32.6887 9.32129 32.6904C3.86274 32.7104 3.86193 32.7106 1.98242 30.9131C1.11586 29.9497 1.11523 29.9488 1.11523 29.4756H0.896484C-0.48247 26.4601 -0.120624 23.5396 0.970703 20.4844C1.19457 19.847 1.36325 19.1912 1.53809 18.5391C1.67389 18.0466 1.81251 17.6367 2.10156 17.209C2.17989 17.0275 2.25849 16.8457 2.33398 16.6631C2.48611 16.316 2.66278 15.9815 2.83789 15.6455C2.95001 15.4074 3.03995 15.1789 3.12695 14.9316C3.30806 14.4407 3.55842 14.0103 3.83496 13.5674C3.88684 13.4836 3.93874 13.3997 3.99219 13.3135C4.97004 11.7544 6.02237 10.2558 7.25293 8.88574C7.32474 8.80499 7.32504 8.80421 7.39844 8.72168C8.5395 7.44033 9.72598 6.21086 11.0879 5.16211C11.1526 5.11152 11.2175 5.06091 11.2842 5.00879C12.5932 3.98773 13.9459 3.12569 15.4238 2.37012C15.4955 2.33307 15.5668 2.295 15.6406 2.25684C16.0581 2.04932 16.433 1.92835 16.8965 1.87695V1.6582C19.1941 0.634999 21.738 0.400365 24.2178 0.158203C24.6035 0.1036 24.8768 0.00105949 25.2852 0.000976562C25.4152 0.000691074 25.5457 0.000294197 25.6797 0C25.8237 0.000244013 25.9678 0.000725042 26.1162 0.000976562H27.8496C28.306 0.00122283 28.7624 0.000301622 29.2188 0H35.0283C36.998 -0.00031252 38.9678 0.000388655 40.9375 0.000976562ZM10.4668 45.1377C10.0539 45.1457 9.80753 45.2122 7.75781 45.7666C7.63034 45.8014 7.50655 45.8354 7.38281 45.8691C6.59277 46.0833 6.04157 46.7967 6.03711 47.6152C6.03701 47.6345 6.03623 47.6545 6.03613 47.6738C6.03524 47.8707 6.0343 48.0678 6.0332 48.2646C6.03041 48.5536 6.02759 48.8429 6.02637 49.1318C6.02605 49.2257 6.0257 49.3171 6.02539 49.4082C6.01904 49.897 6.01854 50.3486 6.1543 50.8213C6.26813 51.144 6.2686 51.145 6.32031 51.4248C6.48061 52.3498 6.75405 53.2471 7.08789 54.124C7.18278 54.3659 7.26825 54.6066 7.34668 54.8545C7.59679 55.6495 7.92223 56.3755 8.30957 57.1104C8.33316 57.1551 8.38108 57.1836 8.43164 57.1836C8.50717 57.1837 8.56736 57.2448 8.56738 57.3203V57.3623C8.56742 57.3887 8.57356 57.4147 8.58496 57.4385C9.41823 59.1741 10.8466 60.9079 12.2871 62.1729C12.5189 62.3678 12.7468 62.5634 12.9688 62.7695C14.2456 63.9582 15.6783 65.0727 17.2793 65.7871C17.649 65.9321 17.6496 65.9325 17.9365 66.0869C19.161 66.7303 20.4285 67.2112 21.793 67.4502C21.855 67.4601 21.9175 67.4703 21.9795 67.4805C22.3894 67.5478 22.789 67.6681 23.1943 67.7588C23.8743 67.9109 24.5506 67.9287 25.2725 67.9277C25.4082 67.927 25.5401 67.9256 25.6719 67.9248C26.1263 67.9237 26.5808 67.923 27.0352 67.9209C27.4539 67.919 27.8732 67.9173 28.292 67.916C29.0181 67.9139 29.7446 67.9111 30.4707 67.9082C31.5295 67.9039 32.5887 67.9 33.6475 67.8965C35.3637 67.8908 37.0807 67.8854 38.7969 67.8789C40.469 67.8726 42.1413 67.8661 43.8135 67.8604C43.9715 67.8598 43.9721 67.8599 44.127 67.8594C44.6458 67.8576 45.1648 67.8563 45.6836 67.8545C49.8561 67.8402 54.0287 67.8252 58.2012 67.8096C58.5297 67.8083 58.762 67.4831 58.5869 67.2051C58.5126 67.0958 58.4403 66.9898 58.3682 66.8838L58.1279 66.5283C57.9701 66.2953 57.8139 66.0613 57.6592 65.8262C57.5145 65.6047 57.37 65.3831 57.2246 65.1621C57.1501 65.0489 57.0772 64.939 57.0049 64.8291C56.6536 64.2892 56.3059 63.7518 55.8975 63.2529C54.1692 61.2891 52.182 60.1256 49.54 59.9258C49.4143 59.918 49.292 59.9108 49.1699 59.9033C47.2522 59.7796 47.2516 59.7794 43.2021 59.7715C42.6348 59.7704 42.0673 59.769 41.5 59.7666C40.4217 59.7619 39.343 59.758 38.2646 59.7549C36.3195 59.7493 34.3738 59.7421 32.4287 59.7344C31.7442 59.7316 31.0595 59.7293 30.375 59.7275C28.2241 59.7222 26.0554 59.7735 23.9102 59.5928C20.9279 59.2743 17.4116 57.9603 15.457 55.5869C15.3535 55.4532 15.3535 55.4524 15.252 55.3213C14.7865 54.735 14.3219 54.1588 13.9854 53.4873C13.9438 53.3934 13.9027 53.3012 13.8623 53.21C13.8409 53.1622 13.7926 53.1309 13.7402 53.1309C13.6671 53.1307 13.6105 53.0711 13.6074 52.998C13.6034 52.9001 13.5875 52.865 13.5273 52.7305C12.6997 51.1447 12.0782 49.51 11.5254 47.8105C11.452 47.5849 11.3778 47.3592 11.3037 47.1338C11.1035 46.5264 10.904 45.9187 10.7061 45.3105C10.6724 45.2069 10.5758 45.1356 10.4668 45.1377ZM27.4502 5.14844C25.9772 5.14528 24.5164 5.17269 23.0498 5.32324C22.9093 5.34084 22.7722 5.35792 22.6357 5.375C22.2373 5.42306 21.8758 5.47525 21.4941 5.59961C21.17 5.71849 21.1696 5.71864 20.8193 5.77637C18.3041 6.19583 16.0074 7.35827 14.0312 8.95508C13.8734 9.0861 13.8726 9.08634 13.7178 9.21484C13.079 9.72129 12.453 10.2269 11.8857 10.8135C11.8009 10.9027 11.7181 10.9895 11.6357 11.0762C10.389 12.3571 9.28236 13.6884 8.31152 15.1914C8.23715 15.3082 8.23609 15.3082 8.16309 15.4229C7.92914 15.7877 7.71681 16.124 7.60645 16.5479C7.59788 16.6238 7.58937 16.6978 7.58105 16.7715H7.3623V17.209H7.14258C6.56444 18.457 5.87339 19.7822 5.8252 21.1768C5.82671 21.2747 5.82664 21.275 5.82812 21.3711H5.6084C5.34316 22.5411 5.23489 23.6478 5.25488 24.8467C5.25777 25.0151 5.26009 25.1841 5.26172 25.3525C5.26296 25.5117 5.26494 25.6709 5.2666 25.8301C5.27278 26.4171 5.70718 26.9012 6.27832 27.0371C6.4007 27.0689 6.51989 27.1 6.63867 27.1309C6.90955 27.2002 7.18041 27.2701 7.45117 27.3398C7.94047 27.4671 8.42064 27.5892 8.90723 27.6826C9.52378 27.8009 10.1024 27.377 10.3145 26.7861C10.3438 26.705 10.3728 26.6257 10.4014 26.5469C10.4629 26.3762 10.5244 26.2048 10.5859 26.0342C10.6822 25.7684 10.7784 25.5024 10.874 25.2363C11.3978 23.7791 11.9049 22.3044 12.6143 20.9248C12.6634 20.8322 12.712 20.7422 12.7598 20.6523C13.4053 19.4346 14.1073 18.3427 15.0674 17.3457C18.1065 14.4409 21.813 13.4539 25.9512 13.4521C26.1632 13.4521 26.3759 13.452 26.5879 13.4512C27.0488 13.449 27.5098 13.4473 27.9707 13.4463C28.7092 13.445 29.448 13.4433 30.1865 13.4404C31.3577 13.4357 32.529 13.4318 33.7002 13.4287C35.816 13.4231 37.9321 13.416 40.0479 13.4082C40.7923 13.4054 41.5377 13.4031 42.2822 13.4014C42.7519 13.4003 43.2217 13.3991 43.6914 13.3975C43.9111 13.3967 44.1309 13.3962 44.3506 13.3955C45.5658 13.3938 46.7737 13.3787 47.9863 13.2939C48.1688 13.2801 48.169 13.2802 48.3477 13.2666C49.2819 13.1979 50.2232 13.1432 51.1221 12.8633C54.4479 11.6005 56.6696 8.61634 58.2109 5.49121C56.8914 5.41042 55.5758 5.36459 54.2539 5.36133C54.0548 5.36085 53.8554 5.36021 53.6562 5.35938C53.2211 5.35736 52.7858 5.355 52.3506 5.35352C51.6525 5.3513 50.954 5.34877 50.2559 5.3457C48.7629 5.33908 47.2693 5.33372 45.7764 5.32812C44.1565 5.32205 42.5359 5.31564 40.916 5.30859C40.3252 5.30599 39.7343 5.30379 39.1436 5.30176C36.6809 5.29383 34.2194 5.28028 31.7578 5.20117C30.6362 5.165 29.5148 5.14718 28.3926 5.14746C28.0786 5.14817 27.7642 5.14901 27.4502 5.14844Z" fill="white"/>
</svg>
